<svg xmlns="http://www.w3.org/2000/svg" viewBox="0 0 197.253 64.48">
  <path
    d="M5.018 26.146V5.107h8.3q2.394 0 4.078.915 1.685.904 2.569 2.517.893 1.602.893 3.698 0 2.095-.904 3.698-.904 1.602-2.62 2.496-1.704.894-4.129.894h-5.29V15.76h4.571q1.284 0 2.116-.442.843-.452 1.254-1.243.42-.8.42-1.838 0-1.048-.42-1.829-.411-.79-1.254-1.222-.842-.442-2.136-.442h-3v17.402Zm25.579.308q-2.435 0-4.191-.986-1.747-.997-2.692-2.815-.945-1.828-.945-4.325 0-2.434.945-4.273.945-1.839 2.66-2.866 1.726-1.027 4.048-1.027 1.562 0 2.907.503 1.356.493 2.363 1.49 1.017.996 1.582 2.506.565 1.5.565 3.513v1.202H24.515v-2.712h9.205q0-.945-.411-1.674-.411-.73-1.14-1.14-.72-.422-1.675-.422-.996 0-1.767.463-.76.452-1.192 1.222-.431.76-.441 1.695v2.578q0 1.171.431 2.024.442.853 1.243 1.315.801.462 1.9.462.73 0 1.336-.205.606-.206 1.038-.617.431-.41.657-1.006l4.047.267q-.308 1.459-1.263 2.547-.945 1.08-2.445 1.685-1.49.596-3.441.596zm15.912-.051q-1.798 0-3.256-.925-1.449-.935-2.302-2.743-.842-1.818-.842-4.458 0-2.712.873-4.51.873-1.808 2.322-2.701 1.459-.904 3.195-.904 1.325 0 2.208.452.894.441 1.438 1.109.555.657.843 1.294h.133v-7.91h4.366v21.039h-4.314v-2.527h-.185q-.308.657-.873 1.304-.555.637-1.449 1.058-.883.422-2.157.422zm1.387-3.483q1.058 0 1.787-.575.74-.586 1.13-1.633.4-1.048.4-2.456 0-1.407-.39-2.444-.39-1.038-1.13-1.603-.74-.565-1.797-.565-1.079 0-1.818.586-.74.585-1.12 1.623-.38 1.037-.38 2.403 0 1.377.38 2.435.39 1.048 1.12 1.644.74.585 1.818.585zm11.176 3.226V10.367h4.243v2.753h.164q.432-1.469 1.449-2.219 1.017-.76 2.342-.76.329 0 .709.041.38.041.667.113v3.883q-.308-.092-.852-.164-.545-.072-.997-.072-.965 0-1.725.421-.75.411-1.192 1.15-.431.74-.431 1.706v8.927zm18.214.308q-2.394 0-4.14-1.017-1.736-1.027-2.681-2.856-.945-1.839-.945-4.263 0-2.445.945-4.273.945-1.84 2.68-2.856 1.747-1.027 4.14-1.027 2.394 0 4.13 1.027 1.747 1.017 2.692 2.856.945 1.828.945 4.273 0 2.424-.945 4.263-.945 1.829-2.692 2.856-1.736 1.017-4.13 1.017zm.02-3.39q1.09 0 1.818-.616.73-.627 1.1-1.706.38-1.078.38-2.455 0-1.376-.38-2.455-.37-1.079-1.1-1.705-.729-.627-1.818-.627-1.099 0-1.849.627-.74.626-1.12 1.705-.37 1.079-.37 2.455 0 1.377.37 2.455.38 1.079 1.12 1.706.75.616 1.85.616zM5.018 36.928h5.486l5.793 14.135h.247l5.794-14.135h5.485v21.038H23.51V44.273h-.175l-5.444 13.59h-2.938L9.507 44.222h-.175v13.745H5.018Zm30.879 21.336q-1.51 0-2.691-.524-1.181-.534-1.87-1.571-.678-1.048-.678-2.61 0-1.315.483-2.208.483-.894 1.315-1.438.832-.545 1.89-.822 1.069-.278 2.24-.39 1.376-.144 2.219-.268.842-.133 1.222-.39t.38-.76v-.062q0-.976-.616-1.51-.606-.534-1.726-.534-1.181 0-1.88.524-.698.513-.924 1.294l-4.048-.329q.308-1.438 1.212-2.486.904-1.058 2.332-1.623 1.438-.575 3.329-.575 1.314 0 2.516.308 1.212.308 2.147.956.945.647 1.49 1.664.544 1.006.544 2.414v10.642h-4.15v-2.188h-.123q-.38.74-1.017 1.305-.637.555-1.53.873-.894.308-2.066.308zm1.254-3.02q.965 0 1.705-.38.74-.39 1.16-1.048.422-.657.422-1.49v-1.674q-.206.134-.565.247-.35.102-.791.195-.442.082-.883.154l-.802.113q-.77.113-1.345.36-.576.246-.894.667-.319.411-.319 1.027 0 .894.648 1.367.657.462 1.664.462zm11.032 2.722V42.188h4.243v2.753h.164q.432-1.47 1.449-2.22 1.017-.76 2.342-.76.329 0 .709.042.38.04.668.113v3.883q-.309-.093-.853-.165-.544-.072-.996-.072-.966 0-1.726.422-.75.41-1.192 1.15-.431.74-.431 1.705v8.927zM69.19 42.188v3.287h-9.5v-3.287zm-7.344-3.78h4.376v14.71q0 .606.185.945.185.328.514.462.339.133.78.133.309 0 .617-.05.308-.063.472-.093l.689 3.256q-.33.103-.925.236-.596.144-1.448.175-1.582.062-2.774-.421-1.181-.483-1.839-1.5-.657-1.017-.647-2.568zm10.19 19.558V42.188h4.377v15.778zm.627-17.812 2.178-4.675h4.047l-3.133 4.675zm11.618 8.69v9.122h-4.376V42.188h4.17v2.783h.186q.524-1.376 1.756-2.177 1.233-.812 2.99-.812 1.643 0 2.866.72 1.222.718 1.9 2.054.678 1.325.678 3.164v10.046h-4.376V48.7q.01-1.448-.74-2.26-.75-.821-2.064-.821-.884 0-1.562.38-.667.38-1.048 1.11-.37.718-.38 1.735zm24.203-11.916 5.085 15.984h.195l5.095-15.984h4.93l-7.252 21.038h-5.732l-7.263-21.038zm20.504 21.336q-1.51 0-2.692-.524-1.181-.534-1.87-1.571-.677-1.048-.677-2.61 0-1.315.482-2.208.483-.894 1.315-1.438.832-.545 1.89-.822 1.069-.278 2.24-.39 1.376-.144 2.219-.268.842-.133 1.222-.39t.38-.76v-.062q0-.976-.616-1.51-.606-.534-1.726-.534-1.181 0-1.88.524-.698.513-.924 1.294l-4.048-.329q.309-1.438 1.213-2.486.904-1.058 2.331-1.623 1.439-.575 3.329-.575 1.315 0 2.517.308 1.212.308 2.147.956.945.647 1.49 1.664.544 1.006.544 2.414v10.642h-4.15v-2.188h-.124q-.38.74-1.017 1.305-.637.555-1.53.873-.894.308-2.065.308zm1.253-3.02q.966 0 1.705-.38.74-.39 1.161-1.048.421-.657.421-1.49v-1.674q-.205.134-.565.247-.35.102-.79.195-.443.082-.884.154l-.802.113q-.77.113-1.345.36-.575.246-.894.667-.318.411-.318 1.027 0 .894.647 1.367.657.462 1.664.462zm15.409-18.316v21.038h-4.376V36.928Zm10.683 21.346q-2.434 0-4.19-.986-1.747-.996-2.692-2.814-.945-1.829-.945-4.325 0-2.435.945-4.274.945-1.838 2.66-2.866 1.726-1.027 4.048-1.027 1.561 0 2.907.503 1.356.494 2.363 1.49 1.017.996 1.582 2.506.565 1.5.565 3.514v1.202h-13.324v-2.712h9.204q0-.945-.41-1.675-.412-.73-1.14-1.14-.72-.421-1.675-.421-.997 0-1.767.462-.76.452-1.192 1.222-.431.76-.442 1.695v2.579q0 1.171.432 2.024.442.852 1.243 1.314.801.463 1.9.463.73 0 1.336-.206.606-.205 1.037-.616.432-.411.658-1.007l4.047.267q-.308 1.459-1.263 2.548-.945 1.079-2.445 1.685-1.49.595-3.442.595zm10.098-.308V42.188h4.243v2.753h.164q.432-1.47 1.449-2.22 1.017-.76 2.342-.76.329 0 .709.042.38.04.667.113v3.883q-.308-.093-.852-.165-.545-.072-.997-.072-.965 0-1.725.422-.75.41-1.192 1.15-.432.74-.432 1.705v8.927zm15.882.298q-1.51 0-2.692-.524-1.181-.534-1.87-1.571-.677-1.048-.677-2.61 0-1.315.483-2.208.482-.894 1.314-1.438.833-.545 1.89-.822 1.069-.278 2.24-.39 1.377-.144 2.219-.268.842-.133 1.222-.39t.38-.76v-.062q0-.976-.616-1.51-.606-.534-1.726-.534-1.181 0-1.88.524-.698.513-.924 1.294l-4.048-.329q.309-1.438 1.213-2.486.904-1.058 2.331-1.623 1.439-.575 3.329-.575 1.315 0 2.517.308 1.212.308 2.147.956.945.647 1.49 1.664.544 1.006.544 2.414v10.642h-4.15v-2.188h-.124q-.38.74-1.017 1.305-.637.555-1.53.873-.894.308-2.065.308zm1.253-3.02q.966 0 1.705-.38.74-.39 1.161-1.048.421-.657.421-1.49v-1.674q-.205.134-.565.247-.349.102-.79.195-.442.082-.884.154l-.801.113q-.77.113-1.346.36-.575.246-.894.667-.318.411-.318 1.027 0 .894.647 1.367.657.462 1.664.462z"
    aria-label="Pedro Martín Valera"
    font-family="Inter"
    font-size="28.928"
    font-weight="700"
    style="line-height: 1.1; -inkscape-font-specification: 'Inter, Bold'"
  />
</svg>
